<svg width="121" height="112" viewBox="0 0 121 112" fill="none" xmlns="http://www.w3.org/2000/svg">
<path d="M59.0933 100.531V105.219C59.0933 107.797 56.984 109.906 54.4061 109.906H7.53099C4.95287 109.906 2.84351 107.797 2.84351 105.219V30.2188C2.84351 27.6407 4.95287 25.5315 7.53099 25.5315H32.3749M17.6093 56.0002H30.0312M17.6093 65.3752H30.0312M17.6093 74.7501H30.0312M17.6093 84.1251H30.0312M17.6093 93.5001H30.0312M61.9063 11.4686V6.78111C61.9063 4.20276 64.0157 2.09363 66.5938 2.09363H113.469C116.047 2.09363 118.156 4.20276 118.156 6.78111V81.7809C118.156 84.359 116.047 86.4684 113.469 86.4684H90.9685M90.9685 32.5625H103.39M90.9685 41.9375H103.39M90.9685 51.3122H103.39M90.9685 60.6872H103.39M90.9685 70.0622H103.39M52.607 72.1926C53.6435 71.1561 54.874 70.3338 56.2282 69.7728C57.5825 69.2118 59.034 68.923 60.4998 68.923C61.9657 68.923 63.4172 69.2118 64.7714 69.7728C66.1257 70.3338 67.3562 71.1561 68.3926 72.1926M52.2967 51.526L45.2655 58.5572M45.2655 51.526L52.2967 58.5572M75.7341 51.526L68.7029 58.5572M68.7029 51.526L75.7341 58.5572M37.0624 13.8126H83.9375C86.5154 13.8126 88.6247 15.9217 88.6247 18.4998V93.4998C88.6247 96.078 86.5154 98.1873 83.9375 98.1873H37.0624C34.4843 98.1873 32.3749 96.078 32.3749 93.4998V18.4998C32.3749 15.9217 34.4843 13.8126 37.0624 13.8126Z" stroke="white" stroke-width="4" stroke-miterlimit="2.613" stroke-linecap="round" stroke-linejoin="round"/>
</svg>
